# xmcd
#
# Track frame offsets:
#	150
#	20142
#	35075
#	60975
#	82487
#	104352
#	124431
#	143050
#	163148
#	186979
#	204456
#	220677
#
# Disc length: 3065 seconds
#
# Revision: 1
# Processed by: cddbd v1.5.2PL0 Copyright (c) Steve Scherf et al.
# Submitted via: audiograbber 1.83.01
#
DISCID=b90bf70c
DTITLE=Zed Mitchell - Autumn in Berlin
DYEAR=2013
DGENRE=Blues
TTITLE0=One night in Berlin
TTITLE1=I´m in Vegas tonight
TTITLE2=This is the end
TTITLE3=Tears in Blue
TTITLE4=Like you do
TTITLE5=Blue Heart
TTITLE6=Up and Down
TTITLE7=Early morning blues
TTITLE8=Stranger in my Mirror
TTITLE9=People asking
TTITLE10=Waiting for the fire
TTITLE11=Good morning, angels
EXTD=
EXTT0=
EXTT1=
EXTT2=
EXTT3=
EXTT4=
EXTT5=
EXTT6=
EXTT7=
EXTT8=
EXTT9=
EXTT10=
EXTT11=Instrumental
PLAYORDER=
